<svg width="200" height="200" viewBox="0 0 100 100" xmlns="http://www.w3.org/2000/svg">
  <g xmlns="http://www.w3.org/2000/svg">
    <path d="M97.476,35.874c0-13.076-11.236-23.674-25.103-23.674c-9.789,0-18.251,5.296-22.386,13.006   C45.846,17.496,37.39,12.2,27.6,12.2c-13.865,0-25.1,10.599-25.1,23.674c0,0.075,0.01,0.147,0.011,0.222   c-0.124,2.576-0.032,27.539,47.474,53.689l0.002,0.015c0.004-0.003,0.009-0.005,0.013-0.007c0.003,0.002,0.009,0.004,0.013,0.007   l0.005-0.015C100.186,62.168,97.476,35.874,97.476,35.874z M55.133,83.347C84.46,61.307,84.47,41.732,84.47,41.732   c0-9.61-8.148-17.4-18.203-17.4c-7.097,0-13.228,3.894-16.228,9.56c-3.002-5.666-9.132-9.56-16.232-9.56   c-10.052,0-18.195,7.791-18.195,17.4c0,0.054,0.006,0.11,0.007,0.165c-0.089,1.874-2.742,18.271,30.519,37.225   c-0.709-0.566-21.513-15.7-23.407-34.172c-0.005-0.043-0.007-0.087-0.007-0.13c0-7.626,6.463-13.808,14.438-13.808   c5.634,0,10.499,3.09,12.879,7.587c2.378-4.498,7.248-7.587,12.875-7.587c7.975,0,15.306,6.228,14.441,13.808   c-0.557,4.88-1.998,8.63-7.223,18.319C64.729,73.155,54.565,82.22,51.181,85.631c-0.387,0.217-0.77,0.434-1.165,0.651l-0.005,0.012   c-0.003-0.002-0.008-0.004-0.011-0.006c-0.003,0.002-0.009,0.004-0.011,0.006l-0.002-0.012C7.622,62.964,7.542,40.703,7.652,38.403   c-0.002-0.064-0.01-0.128-0.01-0.196c0-11.66,10.02-21.113,22.382-21.113c8.732,0,16.273,4.725,19.965,11.6   c3.689-6.875,11.231-11.6,19.962-11.6c12.36,0,22.383,9.453,22.383,21.113C92.334,38.207,94.553,59.825,55.133,83.347z"></path>
    <path d="M47.232,79.751c-0.378-0.211-0.727-0.42-1.095-0.63c0.013,0.011,0.034,0.027,0.033,0.027   C46.167,79.15,47.232,79.751,47.232,79.751z"></path>
  </g>
</svg>
